<svg width="210" height="62" viewBox="0 0 210 62" fill="none" xmlns="http://www.w3.org/2000/svg">
<path d="M72.6736 12.4C70.466 12.4 69.3623 12.9881 69.3623 14.1644C69.3623 14.6156 69.5073 15.2118 69.7973 15.953C70.1035 16.6781 70.2565 17.8947 70.2565 19.6027L70.2082 21.3913L70.1115 23.204C70.1115 23.5102 69.9987 25.7097 69.7731 29.8025C69.5637 33.8792 69.4106 36.5459 69.3139 37.8028C69.2172 39.0435 69.1447 40.0184 69.0964 40.7274C69.0642 41.4202 68.9514 42.4676 68.758 43.8695L68.613 44.8846V45.5372C68.613 46.0851 68.8869 46.5765 69.4348 47.0116C69.9987 47.4305 70.6513 47.64 71.3925 47.64H72.6494C73.8418 47.64 74.7844 47.4305 75.4773 47.0116C76.1863 46.5926 76.5408 46.0287 76.5408 45.3197V45.0296C76.5408 44.804 76.3152 44.3368 75.864 43.6278C75.4128 42.9188 75.0825 42.0567 74.873 41.0416C74.6636 40.0264 74.5588 38.3587 74.5588 36.0384C74.5588 33.7019 74.6877 30.0845 74.9455 25.186L75.0181 23.8083L75.0906 22.8898C75.1228 22.2775 75.155 21.6733 75.1872 21.0771L75.2356 20.1586C75.2356 20.1103 75.2598 19.8041 75.3081 19.2401L75.5015 15.6388C75.5015 14.3658 75.3323 13.5118 74.9939 13.0768C74.6555 12.6256 74.0271 12.4 73.1086 12.4H72.6736Z" fill="#061737"/>
<path fill-rule="evenodd" clip-rule="evenodd" d="M1.73432 32.0261C1.13812 33.7664 0.840027 35.4744 0.840027 37.1502V37.7544C0.840027 40.6548 1.51679 42.9993 2.87032 44.7879C4.23995 46.5604 6.14133 47.4466 8.57446 47.4466H9.22705C10.7256 47.4466 12.3772 47.1163 14.1819 46.4557C14.7781 46.2301 15.2615 46.1173 15.6321 46.1173C16.0027 46.1173 16.5828 46.2623 17.3724 46.5523C18.1619 46.8263 18.9757 46.9632 19.8136 46.9632C20.6676 46.9632 21.296 46.7699 21.6988 46.3832C22.1017 45.9964 22.3031 45.6258 22.3031 45.2713C22.3031 44.9168 22.1742 44.3287 21.9164 43.5069C21.6585 42.6851 21.5296 41.4605 21.5296 39.8331V37.9478L21.5538 37.3919C21.5538 37.0374 21.5619 36.6668 21.578 36.2801L21.6021 35.7C21.6021 34.2175 21.723 31.5024 21.9647 27.5547C22.2064 23.6069 22.3272 21.2704 22.3272 20.5453C22.3272 19.8041 22.3353 19.2401 22.3514 18.8534L22.3998 17.7174V15.4696C22.3998 14.3417 22.2144 13.6004 21.8438 13.246C21.4732 12.8915 20.9093 12.7142 20.1519 12.7142H19.6685C18.7017 12.7142 17.9202 13.0043 17.324 13.5843C16.7278 14.1483 16.4297 14.7767 16.4297 15.4696C16.4297 15.5824 16.5022 16.0013 16.6473 16.7264C16.7923 17.4516 16.8648 18.0316 16.8648 18.4667C16.8648 20.8193 16.6392 22.342 16.188 23.0348C15.7369 23.7116 14.5767 24.05 12.7075 24.05C10.8545 24.05 9.25122 24.332 7.8977 24.8959C6.54417 25.4438 5.32761 26.3381 4.24801 27.5788C3.16841 28.8034 2.33052 30.2859 1.73432 32.0261ZM5.48069 37.8753V36.0384C5.48069 33.4119 6.06882 31.2366 7.2451 29.5124C8.43749 27.7883 9.8877 26.9262 11.5957 26.9262H12.5384C15.1648 26.9262 16.4781 28.5698 16.4781 31.8569V33.573L16.4539 34.5882L16.4056 35.0716C16.4056 35.2327 16.3895 35.4905 16.3572 35.845C16.3572 38.7454 15.8497 40.9288 14.8345 42.3951C13.8355 43.8614 12.4175 44.5946 10.5806 44.5946H9.90381C8.71142 44.5946 7.67211 43.9581 6.78587 42.6851C5.91575 41.3961 5.48069 39.7928 5.48069 37.8753Z" fill="#061737"/>
<path fill-rule="evenodd" clip-rule="evenodd" d="M29.2882 27.1921C29.2882 28.5779 29.828 29.2707 30.9076 29.2707C31.3588 29.2707 32.4142 28.8921 34.0739 28.1347C35.7336 27.3774 37.071 26.9987 38.0861 26.9987C39.1174 26.9987 40.0036 27.321 40.7449 27.9655C41.4861 28.594 41.8567 29.4721 41.8567 30.6001C41.8567 31.7119 41.4216 32.4692 40.5515 32.8721C40.052 33.0977 39.1093 33.3152 37.7236 33.5247C36.3378 33.7341 35.3469 33.9033 34.7507 34.0322C32.7687 34.4673 31.0849 35.281 29.6991 36.4734C28.3134 37.6497 27.6205 39.2933 27.6205 41.4041C27.6205 43.515 28.2489 45.1424 29.5058 46.2865C30.7787 47.4305 32.3175 48.0026 34.1222 48.0026H34.654C35.7336 48.0026 37.0549 47.7206 38.6179 47.1566C40.1809 46.5765 40.9866 46.2865 41.0349 46.2865C41.4861 46.2865 42.2031 46.496 43.186 46.9149C44.169 47.3177 45.0794 47.5192 45.9173 47.5192C46.7551 47.5192 47.3916 47.358 47.8267 47.0358C48.2779 46.6974 48.5035 46.2945 48.5035 45.8272C48.5035 45.36 48.2859 44.7638 47.8509 44.0387C47.4319 43.3136 47.1741 42.7012 47.0774 42.2017C46.9969 41.6861 46.9566 39.7444 46.9566 36.3767C46.9566 33.009 46.9405 31.1318 46.9082 30.7451C46.7632 29.0854 46.3604 27.74 45.6997 26.7087C45.0552 25.6774 44.1126 24.8637 42.8718 24.2675C41.6311 23.6552 40.197 23.3491 38.5695 23.3491H37.361C35.4758 23.3491 33.655 23.7358 31.8986 24.5092C30.1584 25.2666 29.2882 26.1608 29.2882 27.1921ZM36.926 44.7154H36.2976C35.2663 44.7154 34.3962 44.4012 33.6872 43.7728C32.9943 43.1444 32.6479 42.2904 32.6479 41.2108V40.7274C32.6479 39.4544 33.0346 38.4715 33.808 37.7786C34.9199 36.7957 36.1284 36.3042 37.4336 36.3042C37.6269 36.3042 37.9492 36.272 38.4004 36.2075L39.343 36.135L39.5122 36.1109H40.5998C41.5505 36.1109 42.0259 36.5782 42.0259 37.5127V38.8904L41.9775 39.6397V39.9539L41.9292 40.2681C41.9292 41.4444 41.4216 42.4837 40.4065 43.3861C39.4074 44.2723 38.2473 44.7154 36.926 44.7154Z" fill="#061737"/>
<path d="M62.0145 16.3397V16.6298C62.0145 17.4516 61.7728 18.1525 61.2894 18.7326C60.8222 19.2965 60.097 19.5785 59.1141 19.5785H58.7274L57.9781 19.4818C57.5431 19.4818 57.1241 19.2804 56.7213 18.8776C56.3185 18.4748 56.117 17.8705 56.117 17.0648V16.7748L56.2379 15.9047C56.2379 15.5663 56.4393 15.1473 56.8421 14.6478C57.2611 14.1483 57.7928 13.8985 58.4374 13.8985L58.9933 13.826H59.4767L60.1534 13.9227C60.5724 13.9227 60.9833 14.1322 61.3861 14.5511C61.8051 14.954 62.0145 15.5502 62.0145 16.3397Z" fill="#061737"/>
<path d="M60.8785 26.5395L60.6127 33.0413L60.5643 33.6939L60.4918 35.6758V36.6184C60.4918 38.9388 60.5563 40.4615 60.6852 41.1866C60.8302 41.9117 61.0961 42.6207 61.4828 43.3136C61.8695 43.9903 62.0629 44.4818 62.0629 44.7879V45.0055C62.0629 45.795 61.66 46.4234 60.8544 46.8907C60.0487 47.358 58.953 47.5917 57.5672 47.5917H56.963C56.1573 47.5917 55.545 47.4144 55.1261 47.0599C54.7071 46.6893 54.4976 46.2945 54.4976 45.8756V45.3438C54.4976 45.1344 54.6829 44.3932 55.0536 43.1202C55.4242 41.8311 55.6095 40.0828 55.6095 37.8753C55.6578 37.2469 55.682 36.8118 55.682 36.5701L55.7545 35.2407L55.8028 34.5882C55.8834 33.4602 55.9237 32.582 55.9237 31.9536L55.9478 30.9868C55.9478 29.7783 55.7464 28.7068 55.3436 27.7722C54.9569 26.8376 54.7635 26.2575 54.7635 26.0319C54.7635 24.8718 55.8592 24.2917 58.0506 24.2917H58.9208C59.7426 24.2917 60.2743 24.5092 60.516 24.9443C60.7577 25.3632 60.8785 25.895 60.8785 26.5395Z" fill="#061737"/>
<path d="M90.2452 47.6642C90.2452 46.8263 89.6732 45.36 88.5291 43.2652C87.3851 41.1544 86.4263 39.1885 85.6529 37.3677C83.0103 31.1641 81.689 27.5788 81.689 26.612C81.689 26.177 81.9388 25.7822 82.4383 25.4277C82.9539 25.0732 83.8079 24.8959 85.0003 24.8959C86.1927 24.8959 87.0306 25.4035 87.514 26.4187C87.5623 26.5315 87.7315 27.2324 88.0216 28.5215C90.213 36.5298 91.5826 40.7274 92.1305 41.1141C92.9684 41.1141 94.1124 39.1563 95.5626 35.2407C96.5456 32.582 97.1498 30.3503 97.3754 28.5456C97.6171 26.7409 97.8105 25.7016 97.9555 25.4277C98.4067 24.5898 99.3412 24.1708 100.759 24.1708C102.193 24.1708 102.91 24.7268 102.91 25.8386C102.91 26.6281 102.62 27.6836 102.04 29.0049C101.46 30.3262 100.912 31.7603 100.397 33.3071C97.4479 42.1373 95.3129 47.7125 93.9916 50.0328C92.6703 52.3693 91.2765 54.2062 89.8102 55.5436C88.3438 56.8971 86.8695 57.5739 85.387 57.5739C83.9207 57.5739 83.1875 57.155 83.1875 56.3171C83.1875 55.5759 83.9368 54.8991 85.4354 54.2868C86.95 53.6745 88.0055 52.9655 88.6017 52.1598C89.6974 50.6935 90.2452 49.1949 90.2452 47.6642Z" fill="#061737"/>
<path d="M154.151 33.0413L154.417 26.5395C154.417 25.895 154.296 25.3632 154.054 24.9443C153.813 24.5092 153.281 24.2917 152.459 24.2917H151.589C149.397 24.2917 148.302 24.8718 148.302 26.0319C148.302 26.2575 148.495 26.8376 148.882 27.7722C149.285 28.7068 149.486 29.7783 149.486 30.9868L149.462 31.9536C149.462 32.582 149.422 33.4602 149.341 34.5882L149.293 35.2407L149.22 36.5701C149.22 36.8118 149.196 37.2469 149.148 37.8753C149.148 40.0828 148.962 41.8311 148.592 43.1202C148.221 44.3932 148.036 45.1344 148.036 45.3438V45.8756C148.036 46.2945 148.245 46.6893 148.664 47.0599C149.083 47.4144 149.696 47.5917 150.501 47.5917H151.106C152.491 47.5917 153.587 47.358 154.393 46.8907C155.198 46.4234 155.601 45.795 155.601 45.0055V44.7879C155.601 44.4818 155.408 43.9903 155.021 43.3136C154.634 42.6207 154.368 41.9117 154.223 41.1866C154.095 40.4615 154.03 38.9388 154.03 36.6184V35.6758L154.103 33.6939L154.151 33.0413Z" fill="#061737"/>
<path d="M183.735 44.8604C183.735 46.0528 182.696 46.649 180.617 46.649C179.441 46.649 178.651 46.367 178.249 45.8031C178.055 45.5291 177.958 44.8846 177.958 43.8695L177.886 42.3226C177.773 40.6307 177.717 38.9307 177.717 37.2227C177.717 33.5327 177.395 31.0593 176.75 29.8025C176.122 28.5295 175.058 27.893 173.56 27.893C172.561 27.893 171.634 28.1911 170.78 28.7873C169.942 29.3835 169.298 30.2134 168.846 31.2768C167.912 33.4522 167.445 37.4724 167.445 43.3377C167.445 44.6751 167.187 45.6178 166.671 46.1656C166.172 46.7135 165.527 46.9874 164.737 46.9874H164.254C162.449 46.9874 161.547 46.2704 161.547 44.8363V44.2562C161.547 44.0789 161.644 43.6922 161.837 43.096L162.224 41.9842C162.61 40.679 162.804 37.8833 162.804 33.5972L162.925 26.4187C162.925 25.5002 163.424 25.041 164.423 25.041C165.422 25.041 166.405 25.3713 167.372 26.0319C168.355 26.6926 168.975 27.0229 169.233 27.0229C169.507 27.0229 169.982 26.8376 170.659 26.467C172.931 25.2263 174.752 24.6059 176.122 24.6059H176.75C179.215 24.6059 180.948 25.7177 181.947 27.9414C182.43 28.9887 182.672 31.2446 182.672 34.709V34.8782C182.672 35.1682 182.664 35.4583 182.648 35.7483V38.5279C182.648 39.7686 182.688 40.6146 182.768 41.0657C182.881 41.678 183.066 42.3145 183.324 42.9752C183.598 43.7003 183.735 44.3287 183.735 44.8604Z" fill="#061737"/>
<path fill-rule="evenodd" clip-rule="evenodd" d="M189.114 32.0261C188.518 33.7664 188.22 35.4744 188.22 37.1502V37.7544C188.22 40.6548 188.897 42.9993 190.25 44.7879C191.62 46.5604 193.521 47.4466 195.954 47.4466H196.607C198.106 47.4466 199.757 47.1163 201.562 46.4557C202.158 46.2301 202.641 46.1173 203.012 46.1173C203.383 46.1173 203.963 46.2623 204.752 46.5523C205.542 46.8263 206.356 46.9632 207.193 46.9632C208.048 46.9632 208.676 46.7699 209.079 46.3832C209.482 45.9964 209.683 45.6258 209.683 45.2713C209.683 44.9168 209.554 44.3287 209.296 43.5069C209.038 42.6851 208.91 41.4605 208.91 39.8331V37.9478L208.934 37.3919C208.934 37.0374 208.942 36.6668 208.958 36.2801L208.982 35.7C208.982 34.2175 209.103 31.5024 209.345 27.5547C209.586 23.6069 209.707 21.2704 209.707 20.5453C209.707 19.8041 209.715 19.2401 209.731 18.8534L209.78 17.7174V15.4696C209.78 14.3417 209.594 13.6004 209.224 13.246C208.853 12.8915 208.289 12.7142 207.532 12.7142H207.048C206.082 12.7142 205.3 13.0043 204.704 13.5843C204.108 14.1483 203.81 14.7767 203.81 15.4696C203.81 15.5824 203.882 16.0013 204.027 16.7264C204.172 17.4516 204.245 18.0316 204.245 18.4667C204.245 20.8193 204.019 22.342 203.568 23.0348C203.117 23.7116 201.957 24.05 200.087 24.05C198.234 24.05 196.631 24.332 195.278 24.8959C193.924 25.4438 192.708 26.3381 191.628 27.5788C190.548 28.8034 189.71 30.2859 189.114 32.0261ZM192.861 37.8753V36.0384C192.861 33.4119 193.449 31.2366 194.625 29.5124C195.817 27.7883 197.268 26.9262 198.976 26.9262H199.918C202.545 26.9262 203.858 28.5698 203.858 31.8569V33.573L203.834 34.5882L203.786 35.0716C203.786 35.2327 203.769 35.4905 203.737 35.845C203.737 38.7454 203.23 40.9288 202.214 42.3951C201.215 43.8614 199.797 44.5946 197.961 44.5946H197.284C196.091 44.5946 195.052 43.9581 194.166 42.6851C193.296 41.3961 192.861 39.7928 192.861 37.8753Z" fill="#061737"/>
<path d="M155.553 16.3397V16.6298C155.553 17.4516 155.311 18.1525 154.828 18.7326C154.36 19.2965 153.635 19.5785 152.652 19.5785H152.266L151.516 19.4818C151.081 19.4818 150.662 19.2804 150.26 18.8776C149.857 18.4748 149.655 17.8705 149.655 17.0648V16.7748L149.776 15.9047C149.776 15.5663 149.978 15.1473 150.38 14.6478C150.799 14.1483 151.331 13.8985 151.976 13.8985L152.532 13.826H153.015L153.692 13.9227C154.111 13.9227 154.522 14.1322 154.924 14.5511C155.343 14.954 155.553 15.5502 155.553 16.3397Z" fill="#061737"/>
<path fill-rule="evenodd" clip-rule="evenodd" d="M119.67 32.1274C119.413 33.2031 119.149 34.2941 118.896 35.1948C117.139 41.4467 115.594 47.6333 114.698 53.9353C114.624 54.4499 114.548 54.9269 114.477 55.3735C114.253 56.7804 114.076 57.8851 114.19 58.9094C114.359 60.4378 113.257 61.8139 111.728 61.9829C110.2 62.1519 108.824 61.0499 108.655 59.5214C108.449 57.6614 108.798 55.5349 109.043 54.0445C109.098 53.7114 109.147 53.4101 109.184 53.1507C110.133 46.4862 111.755 40.0236 113.535 33.6882C113.819 32.6759 114.039 31.742 114.276 30.7345C114.474 29.8927 114.684 28.9997 114.954 27.9668C115.486 25.9323 116.173 23.7237 117.255 21.7591C117.441 21.4215 118.039 20.502 119.302 20.2826C120.571 20.0621 121.445 20.733 121.732 20.9901C122.269 21.4706 122.547 22.0827 122.63 22.2663C122.632 22.2715 122.635 22.2764 122.637 22.2809C122.889 22.8355 123.112 23.5508 123.281 24.134C123.603 25.2487 123.984 26.8594 123.953 26.7434C124.788 29.8625 125.693 32.9163 126.61 36.0109C126.937 37.1123 127.264 38.2189 127.591 39.3355C128.29 37.3032 129.073 35.2885 129.962 33.3264C129.962 33.3275 129.987 33.2677 130.057 33.0864C130.095 32.9885 130.135 32.8839 130.181 32.7644C130.213 32.6798 130.249 32.5877 130.288 32.4853C130.468 32.0156 130.702 31.4152 130.96 30.8161C131.211 30.2335 131.519 29.5691 131.858 28.9984C132.026 28.7162 132.246 28.3798 132.52 28.0677C132.739 27.8175 133.26 27.2637 134.091 26.9932C135.039 26.6845 135.883 26.9283 136.414 27.2255C136.886 27.4899 137.184 27.8261 137.331 28.0089C137.632 28.3828 137.826 28.7846 137.932 29.021C138.169 29.5476 138.373 30.1784 138.527 30.6984C138.689 31.2459 138.832 31.7937 138.935 32.2042C139.073 32.75 139.089 32.8253 139.071 32.7708C139.119 32.9201 139.216 33.2849 139.332 33.7237C139.414 34.0293 139.505 34.3708 139.595 34.7002C139.845 35.6146 140.166 36.7307 140.521 37.7954C140.877 38.8627 141.226 39.7499 141.527 40.3171C142.254 40.651 142.833 41.2942 143.056 42.1276C143.454 43.613 142.572 45.1398 141.087 45.5378C139.469 45.9713 138.282 45.0628 137.814 44.6119C137.297 44.114 136.921 43.5053 136.658 43.0217C136.111 42.0135 135.628 40.7275 135.238 39.5575C134.941 38.6682 134.672 37.7664 134.446 36.9701C133.049 40.2845 131.932 43.7977 130.983 47.3515C130.901 47.6579 130.71 48.3196 130.451 48.8888C130.449 48.8932 130.447 48.8979 130.445 48.9031C130.36 49.0906 130.064 49.7426 129.481 50.2418C129.148 50.527 128.261 51.1449 127.019 50.9036C125.817 50.67 125.226 49.8078 125.025 49.4562C124.343 48.267 123.922 47.0024 123.611 45.8942C123.461 45.3608 123.327 44.827 123.205 44.3412L123.188 44.2741C123.057 43.7558 122.94 43.2939 122.815 42.8576C122.326 41.1575 121.817 39.4364 121.303 37.7031C120.756 35.8551 120.204 33.993 119.67 32.1274ZM132.832 31.2603C132.832 31.26 132.835 31.2658 132.841 31.2786C132.835 31.267 132.832 31.2605 132.832 31.2603Z" fill="#FF9D80"/>
</svg>
