<svg width="24" height="24" viewBox="0 0 24 24" fill="none" xmlns="http://www.w3.org/2000/svg">
<path d="M15.8698 2.66881L20.8384 7.63733C21.717 8.51601 21.717 9.94063 20.8384 10.8193L12.1566 19.4998L18.2544 19.5C18.6341 19.5 18.9479 19.7821 18.9976 20.1482L19.0044 20.25C19.0044 20.6297 18.7223 20.9435 18.3562 20.9931L18.2544 21L9.84443 21.0012C9.22822 21.0349 8.60082 20.8163 8.1301 20.3456L3.16157 15.3771C2.28289 14.4984 2.28289 13.0738 3.16157 12.1951L12.6879 2.66881C13.5665 1.79013 14.9912 1.79013 15.8698 2.66881ZM5.70856 11.7678L4.22223 13.2557C3.92934 13.5486 3.92934 14.0235 4.22223 14.3164L9.19076 19.2849C9.33721 19.4314 9.52915 19.5046 9.72109 19.5046L9.74997 19.5L9.78846 19.5016C9.95737 19.4864 10.1221 19.4142 10.2514 19.2849L11.7376 17.7978L5.70856 11.7678ZM13.7485 3.72947L6.76956 10.7068L12.7986 16.7368L19.7777 9.75865C20.0706 9.46576 20.0706 8.99089 19.7777 8.69799L14.8092 3.72947C14.5163 3.43657 14.0414 3.43657 13.7485 3.72947Z" fill="#061737"/>
</svg>
