<svg width="24" height="24" viewBox="0 0 24 24" fill="none" xmlns="http://www.w3.org/2000/svg">
<path d="M15.8698 2.66881L20.8384 7.63733C21.717 8.51601 21.717 9.94063 20.8384 10.8193L12.1566 19.4998L18.2544 19.5C18.6341 19.5 18.9479 19.7821 18.9976 20.1482L19.0044 20.25C19.0044 20.6297 18.7223 20.9435 18.3562 20.9931L18.2544 21L9.84443 21.0012C9.22822 21.0349 8.60082 20.8163 8.1301 20.3456L3.16157 15.3771C2.28289 14.4984 2.28289 13.0738 3.16157 12.1951L12.6879 2.66881C13.5665 1.79013 14.9912 1.79013 15.8698 2.66881ZM11.6976 17.7583L5.7429 11.8036L4.23657 13.2701C3.94368 13.563 3.94368 14.0379 4.23657 14.3307L9.18233 19.2764C9.4798 19.5646 9.95462 19.5571 10.2429 19.2597L11.6976 17.7583Z" fill="#061737"/>
</svg>
