<svg width="24" height="24" viewBox="0 0 24 24" fill="none" xmlns="http://www.w3.org/2000/svg">
<path d="M15.9889 4L12.9219 7.06267C12.5843 7.39965 12.3198 7.80145 12.1438 8.24292L12.0632 8.46684L11.3242 10.7617C11.1845 11.1956 11.1799 11.6616 11.3109 12.0982C11.6527 13.2366 12.8152 13.9039 13.9573 13.6471L14.1128 13.6063L16.4404 12.9077C16.9149 12.7652 17.3529 12.5239 17.7259 12.2007L17.9069 12.0324L22 7.946V16.7546C22 18.5495 20.5449 20.0046 18.75 20.0046H5.24998C3.45505 20.0046 1.99988 18.5495 1.99988 16.7546L2.00026 12.5552L2.07591 12.5236L2.14909 12.483L5.90854 10.12L6.0067 10.0679C6.34141 9.92083 6.74226 10.0371 6.94264 10.3559C7.06488 10.5504 7.09021 10.7881 7.01611 11.0012L6.97076 11.1054L5.76302 13.3908L5.69294 13.5355C5.22024 14.6064 5.65018 15.8761 6.70107 16.4314C7.32112 16.7591 8.05484 16.7773 8.68636 16.4891L8.8559 16.4029L10.6208 15.4066L10.7059 15.3503C10.9995 15.1261 11.0896 14.7139 10.9019 14.3838C10.7142 14.0538 10.3138 13.9205 9.97102 14.0583L9.87917 14.1027L8.12018 15.0957L8.02225 15.1419C7.82156 15.2193 7.59517 15.2073 7.40191 15.1052C7.06621 14.9278 6.92061 14.5317 7.04774 14.1849L7.08923 14.0917L8.29697 11.8063L8.37641 11.6398C8.6653 10.9647 8.60752 10.186 8.21261 9.55767C7.58139 8.55341 6.28715 8.21911 5.25576 8.76593L5.11031 8.85007L1.99988 10.805V7.25C1.99988 5.51697 3.35643 4.10075 5.06555 4.00514L5.24998 4H15.9889ZM21.1755 3.54486L21.3057 3.66549L21.4262 3.79573C22.1894 4.68738 22.1488 6.03053 21.3047 6.87411L17.0238 11.1478C16.7608 11.4103 16.4369 11.6036 16.081 11.7104L13.7534 12.4091C13.2245 12.5679 12.6669 12.2678 12.5082 11.7388C12.4499 11.5448 12.452 11.3376 12.5141 11.1448L13.253 8.84996C13.3626 8.50946 13.5519 8.20001 13.805 7.94728L18.0957 3.66366C18.9405 2.82024 20.284 2.78082 21.1755 3.54486Z" fill="#061737"/>
</svg>
