<svg width="24" height="24" viewBox="0 0 24 24" fill="none" xmlns="http://www.w3.org/2000/svg">
<path d="M12.0124 2.25005C12.7464 2.25851 13.4775 2.34331 14.1939 2.50309C14.5067 2.57283 14.7406 2.83356 14.7761 3.15201L14.9463 4.67886C15.0233 5.37991 15.6152 5.91089 16.3209 5.91163C16.5105 5.91193 16.6982 5.87243 16.8734 5.79488L18.2741 5.17961C18.5654 5.05164 18.9057 5.12141 19.1232 5.35367C20.1354 6.43469 20.8892 7.7312 21.3279 9.14563C21.4225 9.45063 21.3137 9.78208 21.0566 9.97155L19.8151 10.8866C19.461 11.1468 19.2518 11.5601 19.2518 11.9995C19.2518 12.439 19.461 12.8522 19.8159 13.1129L21.0585 14.0283C21.3156 14.2178 21.4246 14.5493 21.3299 14.8543C20.8914 16.2685 20.138 17.5649 19.1264 18.6461C18.9091 18.8784 18.569 18.9483 18.2777 18.8207L16.8714 18.2046C16.4691 18.0285 16.007 18.0543 15.6268 18.274C15.2466 18.4938 14.9935 18.8812 14.9452 19.3178L14.7761 20.8445C14.7413 21.1593 14.5124 21.4182 14.2043 21.4915C12.7558 21.8362 11.2467 21.8362 9.79828 21.4915C9.49015 21.4182 9.26129 21.1593 9.22643 20.8445L9.0576 19.32C9.00802 18.8843 8.75459 18.498 8.37467 18.279C7.99475 18.06 7.53345 18.0343 7.13244 18.2094L5.72582 18.8257C5.43446 18.9533 5.09428 18.8833 4.87703 18.651C3.86487 17.5685 3.11144 16.2706 2.67344 14.8548C2.57911 14.5499 2.68811 14.2187 2.94509 14.0293L4.18842 13.1134C4.54256 12.8532 4.75172 12.44 4.75172 12.0005C4.75172 11.5611 4.54256 11.1478 4.18796 10.8873L2.94541 9.9729C2.68804 9.7835 2.57894 9.45183 2.67361 9.14663C3.11236 7.7322 3.86619 6.43569 4.87837 5.35467C5.09584 5.12241 5.43618 5.05264 5.72749 5.18061L7.12786 5.79577C7.53081 5.97261 7.99404 5.9459 8.37601 5.72274C8.75633 5.50214 9.00953 5.11427 9.05841 4.67769L9.22849 3.15201C9.26401 2.8334 9.49811 2.57259 9.81105 2.50299C10.5283 2.34347 11.2602 2.2587 12.0124 2.25005ZM11.9999 9C10.3431 9 8.99994 10.3431 8.99994 12C8.99994 13.6569 10.3431 15 11.9999 15C13.6568 15 14.9999 13.6569 14.9999 12C14.9999 10.3431 13.6568 9 11.9999 9Z" fill="#061737"/>
</svg>
