<svg width="24" height="24" viewBox="0 0 24 24" fill="none" xmlns="http://www.w3.org/2000/svg">
<path d="M13.002 8.00686C16.1706 8.00686 17.968 10.1042 18.2294 12.637L18.3094 12.637C20.3485 12.637 22.0015 14.2857 22.0015 16.3195C22.0015 18.3533 20.3485 20.002 18.3094 20.002H7.69467C5.65559 20.002 4.00259 18.3533 4.00259 16.3195C4.00259 14.2857 5.65559 12.637 7.69469 12.637L7.77464 12.637C8.03757 10.0875 9.83351 8.00686 13.002 8.00686ZM13.002 9.50445C10.9307 9.50445 9.12533 11.1377 9.12533 13.3937C9.12533 13.7511 8.80638 14.0316 8.44117 14.0316L7.75061 14.0316C6.48962 14.0316 5.46738 15.0329 5.46738 16.268C5.46738 17.5032 6.48962 18.5044 7.75061 18.5044H18.2535C19.5145 18.5044 20.5367 17.5032 20.5367 16.268C20.5367 15.0329 19.5145 14.0316 18.2535 14.0316L17.5629 14.0316C17.1977 14.0316 16.8787 13.7511 16.8787 13.3937C16.8787 11.1088 15.0734 9.50445 13.002 9.50445ZM4.36766 12.1623C4.51297 12.5131 4.37237 12.911 4.05317 13.0969L3.96177 13.1422L3.0355 13.5259C2.65282 13.6844 2.21409 13.5027 2.05558 13.12C1.91027 12.7692 2.05087 12.3713 2.37007 12.1853L2.46147 12.1401L3.38774 11.7564C3.77042 11.5979 4.20915 11.7796 4.36766 12.1623ZM10.8547 7.32909L10.6831 7.38667C10.149 7.57535 9.66027 7.83074 9.22278 8.14474C8.68936 7.97087 8.09307 7.97922 7.53358 8.21097C6.28779 8.72699 5.6962 10.1552 6.21222 11.401C6.27283 11.5473 6.34602 11.6846 6.43002 11.8122C5.9378 11.9496 5.47684 12.168 5.06348 12.4515C4.97466 12.3013 4.89547 12.1418 4.8264 11.975C3.99335 9.96388 4.9484 7.6582 6.95956 6.82515C8.30185 6.26915 9.77535 6.50967 10.8547 7.32909ZM2.94091 7.36017L3.04642 7.39507L3.97269 7.77874C4.35537 7.93726 4.53709 8.37598 4.37858 8.75867C4.23448 9.10656 3.8588 9.28837 3.50417 9.19946L3.39866 9.16456L2.47239 8.78089C2.08971 8.62238 1.90798 8.18365 2.0665 7.80097C2.2106 7.45307 2.58628 7.27126 2.94091 7.36017ZM6.75614 4.37375L6.80141 4.46515L7.18508 5.39142C7.34359 5.7741 7.16187 6.21283 6.77918 6.37134C6.42839 6.51664 6.03051 6.37605 5.84453 6.05685L5.79926 5.96544L5.41559 5.03918C5.25708 4.65649 5.4388 4.21777 5.82149 4.05925C6.17228 3.91395 6.57017 4.05454 6.75614 4.37375ZM11.1095 4.05524C11.4574 4.19934 11.6392 4.57503 11.5503 4.92966L11.5154 5.03516L11.1317 5.96143C10.9732 6.34411 10.5345 6.52584 10.1518 6.36733C9.80389 6.22322 9.62208 5.84754 9.71099 5.49291L9.74589 5.3874L10.1296 4.46114C10.2881 4.07846 10.7268 3.89673 11.1095 4.05524Z" fill="#061737"/>
</svg>
